<svg xmlns="http://www.w3.org/2000/svg" viewBox="0 0 267 123"><defs><style>.cls-1{isolation:isolate;}.cls-2{fill:#f59b45;}.cls-3{fill:#432919;}.cls-4{fill:#ef88b6;}.cls-5{mix-blend-mode:multiply;}.cls-6{opacity:0.6;}.cls-7{fill:#fff;}.cls-8{fill:#010101;}.cls-9{fill:#e94588;}</style></defs><g class="cls-1"><g id="Capa_1" data-name="Capa 1"><path class="cls-2" d="M75.83,65.18c-10.35,0-18.78-9.34-18.78-20.81s8.43-20.82,18.78-20.82,18.79,9.34,18.79,20.82S86.19,65.18,75.83,65.18Zm0-26.4a5.34,5.34,0,0,0-5,5.59,5.07,5.07,0,1,0,10.09,0A5.35,5.35,0,0,0,75.83,38.78Z"/><path class="cls-3" d="M75.83,24C86,24,94.25,33.1,94.25,44.37S86,64.77,75.83,64.77s-18.41-9.13-18.41-20.4S65.66,24,75.83,24m0,26.4a5.72,5.72,0,0,0,5.41-6c0-3.31-2.42-6-5.41-6s-5.41,2.69-5.41,6a5.73,5.73,0,0,0,5.41,6m0-27.21c-10.55,0-19.14,9.52-19.14,21.22s8.59,21.22,19.14,21.22S95,56.07,95,44.37,86.39,23.15,75.83,23.15Zm0,26.4a5,5,0,0,1-4.67-5.18,4.7,4.7,0,1,1,9.35,0,5,5,0,0,1-4.68,5.18Z"/><path class="cls-4" d="M82.07,64a8.34,8.34,0,0,1-2.7-.5l-1.14-.1-1-.11-1.36-.14h-1a5.88,5.88,0,0,1-2.72.73c-2.17,0-3.79-1.45-5.51-3a18.63,18.63,0,0,0-3-2.36,5.76,5.76,0,0,1-1.13-.37c-3.52-1.58-3.54-6.5-3.28-11q-.08-.59-.12-1.2c-3.79-5-1.54-8.15,1.55-11.4l.27-.28.53-.56c1-4.25,3.84-6.88,7.56-6.88.33,0,.66,0,1,.05q.56-.22,1.08-.39a10.59,10.59,0,0,0,2.67-1.27,8.37,8.37,0,0,1,2.9-1.3h.19a3.25,3.25,0,0,1,1.15.21l0,0,0,0c.17.15.34.31.51.49a17.86,17.86,0,0,0,3.09.55c3,.35,6.08.72,6.6,5.69.15.39.28.76.4,1.11l.55.14c5.66,1.52,4.91,5.84,4,10.85-.15.86-.3,1.76-.43,2.67a11.41,11.41,0,0,1,.65,1.39c1.45,3.81-.85,6.12-3.08,8.35l-.44.45c-.25.25-.49.5-.73.76-1.6,5-3.92,7.35-7.09,7.35Zm-8-13.27a3.53,3.53,0,0,1,1.39.62c.18.12.38.25.62.38l.22.12a1.2,1.2,0,0,0,.52.23c1.5-.1,3-1.73,4.11-3a9.37,9.37,0,0,0,.68-.85,3.8,3.8,0,0,0,.86-3.25A9,9,0,0,1,81,39.54c-.06-.12-.11-.24-.16-.37s-.22-.54-.35-.79a14.5,14.5,0,0,0-1.46-.3,4.82,4.82,0,0,1-1.5-.35,7.45,7.45,0,0,0-2.69-.6c-1.94,0-3.13,1.15-4.64,3.27a7,7,0,0,0-.2.73,13.15,13.15,0,0,0-.11,3.47c0,.14,0,.27.05.41a3.88,3.88,0,0,1,0,.91c-.32,3.29.83,3.67,3.11,4.43Z"/><path class="cls-3" d="M76.75,24.28a2.61,2.61,0,0,1,1,.2c.19.16.37.34.56.53,4,1.27,8.88-.4,9.51,6,.17.43.33.87.48,1.35.26.06.51.12.74.19,6.31,1.69,4.17,7,3.31,13.21a9.49,9.49,0,0,1,.7,1.45c1.44,3.78-1,5.9-3.43,8.35-.27.27-.53.55-.8.83-1.33,4.18-3.33,7.18-6.77,7.18a7.88,7.88,0,0,1-2.63-.5L78.26,63l-2.41-.25H74.73a5.65,5.65,0,0,1-2.64.73c-3.26,0-5.33-3.59-8.43-5.34a5.34,5.34,0,0,1-1.11-.35c-3.35-1.51-3.31-6.31-3-10.65-.06-.44-.11-.89-.14-1.34-3.63-4.77-1.7-7.63,1.45-10.94l.88-.93c.83-3.89,3.46-6.69,7.23-6.69a7.47,7.47,0,0,1,1,.07c.37-.15.75-.3,1.14-.42,2.1-.56,3.61-2.23,5.51-2.56h.14m.06,28.16h0c1.61-.1,3.09-1.74,4.34-3.15.25-.28.49-.58.71-.88a4.18,4.18,0,0,0,.9-3.69,8.77,8.77,0,0,1-1.47-5.27c-.18-.41-.36-.92-.61-1.37-.12-.23-2.89-.53-3-.71a7.86,7.86,0,0,0-2.86-.64c-2.2,0-3.53,1.44-5,3.47a7.38,7.38,0,0,0-.22.84,13,13,0,0,0-.12,3.59,7.53,7.53,0,0,1,.1,1.25c-.35,3.6,1,4.08,3.37,4.86.33.11.68.22,1,.35a5.7,5.7,0,0,1,1.93,1,2.13,2.13,0,0,0,.9.39m-.06-29H76.5a8.69,8.69,0,0,0-3,1.34,10.24,10.24,0,0,1-2.56,1.23h0c-.34.11-.67.23-1,.37-.31,0-.63-.05-.94-.05-3.86,0-6.87,2.71-7.89,7.08l-.45.47-.28.29c-3.08,3.24-5.53,6.59-1.65,11.85,0,.36.07.71.11,1-.21,3.61-.53,9.55,3.52,11.37a5.64,5.64,0,0,0,1.14.37,18.3,18.3,0,0,1,2.93,2.3c1.69,1.51,3.44,3.08,5.74,3.08a6.15,6.15,0,0,0,2.8-.73h.93l1.32.14,1.06.11,1.1.1a8.5,8.5,0,0,0,2.77.51c3.33,0,5.75-2.47,7.41-7.54l.66-.68.44-.45c2.32-2.33,4.71-4.74,3.17-8.81a10.2,10.2,0,0,0-.61-1.31c.12-.86.27-1.7.41-2.52.87-5,1.69-9.7-4.32-11.31l-.36-.1c-.09-.28-.2-.56-.32-.86-.57-5.24-3.94-5.64-6.91-6a18,18,0,0,1-3-.52,5.94,5.94,0,0,0-.46-.44l-.1-.08L78,23.71a3.45,3.45,0,0,0-1.27-.24ZM70.48,40.6c1.42-2,2.55-3.06,4.32-3.06a7,7,0,0,1,2.54.56,5.33,5.33,0,0,0,1.6.38c.38.07,1,.17,1.26.24l.27.62.12.29a9.58,9.58,0,0,0,1.53,5.46,3.26,3.26,0,0,1-.81,2.82c-.2.27-.42.55-.65.81-1.12,1.26-2.5,2.82-3.85,2.91a1.46,1.46,0,0,1-.35-.18l-.23-.13q-.33-.18-.6-.36a3.7,3.7,0,0,0-1.49-.66l-1-.34c-2.29-.76-3.14-1-2.85-4a4.8,4.8,0,0,0-.06-1c0-.12,0-.25-.05-.37a12.65,12.65,0,0,1,.11-3.35c.05-.22.1-.43.16-.62Z"/><g class="cls-5"><path class="cls-4" d="M86.82,29.45c.18.42,1.31,2.27,1.46,2.75.18,0-.62-1.32-.45-1.27a5.77,5.77,0,0,0-1.52-3.74A8,8,0,0,1,86.82,29.45Z"/></g><g class="cls-5"><path class="cls-4" d="M93.07,47.2a9.49,9.49,0,0,0-.7-1.45c.68-4.91,2.15-9.24-.35-11.68,1,2.52-.11,6.13-.66,10.13a9.06,9.06,0,0,1,.7,1.45c1.43,3.78-1,5.89-3.43,8.35-.27.27-.54.54-.8.83-1.64,5.14-4.29,8.5-9.4,6.67-.39,0-.78-.06-1.18-.1-.8-.08-1.61-.18-2.42-.25H73.72c-4.94,2.61-7.21-2.43-11.07-4.61a5,5,0,0,1-1.11-.34,4.34,4.34,0,0,1-1.33-.95,4.58,4.58,0,0,0,2.34,2.5,5.34,5.34,0,0,0,1.11.35c3.86,2.18,6.13,7.21,11.07,4.61h1.12l2.41.25,1.18.11c5.11,1.82,7.77-1.53,9.4-6.68.27-.28.53-.56.8-.83C92.06,53.1,94.51,51,93.07,47.2Z"/></g><g class="cls-6"><path class="cls-7" d="M66.61,29.09c-1.27.74-2.57,1.5-3.06,3.09a.69.69,0,1,0,1.32.41c.35-1.14,1.55-1.67,2.43-2.19s.09-1.76-.69-1.31Z"/><path class="cls-7" d="M62.68,35.78h.07a.76.76,0,0,0,0-1.52h-.07a.76.76,0,0,0,0,1.52Z"/></g><path class="cls-8" d="M20.88,39.61A30.93,30.93,0,0,0,20.21,33c-.67-3-2.9-4.86-2.9-6.48,0-2.23,4.3-3.29,8.54-3.29H35c11.33,0,19.14,11.89,19.14,23.28,0,9.54-5.53,17.86-19,17.86H25.85c-7.59,0-9.94-2.29-9.94-5.25,0-3.68,2.9-5.92,3.91-10A41.43,41.43,0,0,0,20.88,39.61ZM31,42c0,3.74.34,8.82,4,8.82,4.19,0,5.86-4,5.86-8.31,0-5.36-2.51-11.28-5.86-11.28-3.07,0-4,3.85-4,8.43Zm7.09-15.74c0,.67,1.12,1.46,2.12,1.46.5,0,1-.23,1-.67,0-.67-1.12-1.46-2.12-1.46C38.52,25.54,38.07,25.77,38.07,26.21Z"/><path class="cls-8" d="M99.53,39.89A31.09,31.09,0,0,0,98.75,33c-.67-3-2.91-4.86-2.91-6.64,0-2.07,4.3-3.13,8.54-3.13s7.43,1.06,8.54,3.24c.56,1.11,3.86,15.63,5.59,15.63.44,0,.78-.9.83-3.18a26.55,26.55,0,0,0-.44-5.81c-.73-3.07-3-5-3-6.75,0-2.07,4.3-3.13,8.54-3.13S133,24.26,133,26.33c0,1.78-2.23,3.68-2.9,6.64a25.76,25.76,0,0,0-.5,5.58,69.33,69.33,0,0,0,1.23,12.61c1.17,5.64,3.9,7.93,3.9,10.05,0,2.57-4.57,3.69-10.21,3.69S116,63.78,116,61.21c0-5.3-3.74-19.65-5.8-19.65-.34,0-.56.62-.56,2.18a58.6,58.6,0,0,0,.61,7.15c.84,5.91,2.63,8.2,2.63,10.32,0,2.57-2.85,3.69-8.49,3.69-7.75,0-9.93-2.35-9.93-5.25,0-3.69,2.9-6,3.91-10A43.15,43.15,0,0,0,99.53,39.89Z"/><path class="cls-8" d="M145,23.2c4.24,0,8.54,1.06,8.54,3.13,0,1.78-2.23,3.68-3,6.75a26.55,26.55,0,0,0-.44,5.81c0,6.64,1.17,12.33,6.58,12.33,5.25,0,6.81-5.8,6.81-12.84V36a15,15,0,0,0-.22-3.24c-.67-3-2.9-4.85-2.9-6.47,0-2.24,2.34-3.3,6.58-3.3s6.59,1.06,6.59,3.3c0,1.62-2.29,3.51-3,6.47a26.18,26.18,0,0,0-.45,5.58c0,4.3,1.23,9.32,1.23,12.62,0,9.43-9.21,13.9-16,13.9-7.82,0-16.8-6-16.8-13.34,0-2.68,1.23-8.1,1.23-13a25.69,25.69,0,0,0-.51-5.58c-.67-3-2.9-4.86-2.9-6.64C136.48,24.26,140.78,23.2,145,23.2Zm3.8,3.74c.89,0,1.61-.39,1.61-.89s-.72-.95-1.61-.95-1.62.44-1.62.95S147.92,26.94,148.82,26.94Zm19.81,0c.89,0,1.62-.39,1.62-.89s-.73-.95-1.62-.95-1.62.44-1.62.95S167.74,26.94,168.63,26.94Z"/><path class="cls-8" d="M198.66,50.05c.89,3.91,3.8,6,3.8,9.6,0,2.85-2.18,5.25-9.94,5.25s-9.93-2.35-9.93-5.25c0-3.69,2.9-6,3.9-10a33.8,33.8,0,0,0,.84-9,35.2,35.2,0,0,0-.72-7.59c-.28-1.17-.9-1.62-1.62-1.62-1.9,0-4.64,2.9-5.14,3.46C178.9,36,178.07,37,176.56,37c-1.84,0-2.62-2.12-2.62-4.46,0-4.19,2.73-8.82,5.24-8.82h26.24c2.51,0,5.24,4.63,5.24,8.82,0,2.34-.78,4.46-2.62,4.46-1.51,0-2.35-1.06-3.29-2.23-.45-.56-3.3-3.52-5.25-3.52-2.12,0-2.12,4.25-2.12,6.65A48.12,48.12,0,0,0,198.66,50.05Zm4.24-24.39c0,.67,1.12,1.45,2.12,1.45.51,0,.95-.23.95-.67,0-.67-1.11-1.45-2.12-1.45C203.35,25,202.9,25.21,202.9,25.66Z"/><path class="cls-8" d="M236.56,37a3,3,0,0,1-.72-.11c-2.29-.78-2.24-5.75-5.53-5.75A3.09,3.09,0,0,0,227.07,34c0,4.08,16.92,4.08,16.92,16.19,0,6.92-5.53,14.68-19,14.68-8.2,0-13.67-2.85-13.67-12.67,0-4,1.67-7.7,4.69-7.7,4,0,5,6.3,10.32,6.3,2,0,3.18-.89,3.18-1.67,0-2.68-14.23-7.31-14.23-15,0-5.64,7.7-11.5,15.13-11.5,2.4,0,4.57.78,6.64.78a2.63,2.63,0,0,1,.67.12c1.67.55,2.68,3.29,2.68,6.25S239.07,37,236.56,37Zm-3.12-11.38c0,.67,1.11,1.45,2.12,1.45.5,0,.95-.23.95-.67,0-.67-1.12-1.45-2.12-1.45C233.88,25,233.44,25.21,233.44,25.66Z"/><path class="cls-9" d="M56.48,91.89c0-3.24,1.35-6.2,3.78-6.2,3.19,0,4,5.07,7.19,5.07,3.73,0,4.89-4.22,4.89-8.53a25.73,25.73,0,0,0-.62-5.8c-.54-2.38-2.34-3.91-2.34-5.21,0-1.8,3.46-2.65,6.87-2.65s6.88.85,6.88,2.65c0,1.3-1.84,2.83-2.38,5.21a18.81,18.81,0,0,0-.45,4.27c0,3.77.76,7.68.76,11.14,0,5.8-2.11,10.25-12.58,10.25C60.93,102.09,56.48,99.79,56.48,91.89ZM78,70.72c0,.5.76.9,1.57.9.54,0,1-.22,1-.63s-.72-.9-1.53-.9C78.5,70.09,78,70.32,78,70.72Z"/><path class="cls-9" d="M88.66,80.83a18.76,18.76,0,0,0-.41-4.4c-.54-2.38-2.34-3.91-2.34-5.21,0-1.8,3.46-2.2,6.88-2.2h15.32c2,0,4.22,3.73,4.22,7.1,0,1.88-.63,3.59-2.11,3.59-2.87,0-2.65-4.67-8.13-4.67-3.06,0-5.26,2.42-5.26,4.13,0,.9.63,1.62,2.07,1.62,1.75,0,2.74-1.66,3.68-1.66s1.76,1.7,1.76,3.81-.77,3.87-1.76,3.87S100.7,85.1,98.9,85.1c-1.26,0-1.75.59-1.75,1.44,0,1.66,1.93,4.22,3.46,4.22,5.07,0,5.16-5.07,8.58-5.07,2.83,0,4,2.29,4,5.16,0,4.67-3,10.83-6.33,10.83H92.52c-6.11,0-8-1.84-8-4.22,0-3,2.34-4.77,3.15-8A37.75,37.75,0,0,0,88.66,80.83Zm17.47-10.29c0,.54.9,1.17,1.71,1.17.41,0,.76-.18.76-.54,0-.54-.89-1.17-1.7-1.17C106.49,70,106.13,70.18,106.13,70.54Z"/><path class="cls-9" d="M135.34,79.71a2.8,2.8,0,0,1-.58-.09C132.91,79,133,75,130.31,75a2.48,2.48,0,0,0-2.61,2.25c0,3.28,13.61,3.28,13.61,13,0,5.57-4.44,11.82-15.32,11.82-6.6,0-11-2.3-11-10.2,0-3.24,1.34-6.2,3.77-6.2,3.19,0,4,5.07,8.31,5.07,1.57,0,2.56-.72,2.56-1.35,0-2.15-11.45-5.88-11.45-12,0-4.53,6.2-9.25,12.17-9.25,1.93,0,3.69.63,5.35.63a2,2,0,0,1,.54.09c1.35.45,2.15,2.65,2.15,5S137.36,79.71,135.34,79.71Zm-2.52-9.17c0,.54.9,1.17,1.71,1.17.4,0,.76-.18.76-.54,0-.54-.89-1.17-1.7-1.17C133.18,70,132.82,70.18,132.82,70.54Z"/><path class="cls-9" d="M162.93,79.71a3,3,0,0,1-.59-.09C160.5,79,160.55,75,157.9,75a2.48,2.48,0,0,0-2.61,2.25c0,3.28,13.61,3.28,13.61,13,0,5.57-4.44,11.82-15.32,11.82-6.6,0-11-2.3-11-10.2,0-3.24,1.35-6.2,3.78-6.2,3.19,0,4,5.07,8.31,5.07,1.57,0,2.56-.72,2.56-1.35,0-2.15-11.46-5.88-11.46-12,0-4.53,6.2-9.25,12.18-9.25,1.93,0,3.68.63,5.35.63a2,2,0,0,1,.54.09c1.34.45,2.15,2.65,2.15,5S165,79.71,162.93,79.71Zm-2.52-9.17c0,.54.9,1.17,1.71,1.17.4,0,.76-.18.76-.54,0-.54-.9-1.17-1.7-1.17C160.77,70,160.41,70.18,160.41,70.54Z"/><path class="cls-9" d="M194.11,68.61c2.29,0,4.18.54,4.18,1.66a1.68,1.68,0,0,1-.27.81c-.94,1.44-3.68,3-5.84,5.44a16.71,16.71,0,0,0-3.37,4.67A13,13,0,0,0,188,86a22,22,0,0,0,.4,4.18c.27,1.3,3.06,4.81,3.06,7.73,0,2.29-1.75,4.22-8,4.22s-8-1.89-8-4.22c0-3,2.84-6.65,3.15-8.09a14.57,14.57,0,0,0,.31-2.74,11.86,11.86,0,0,0-1.66-5.89,36.48,36.48,0,0,0-3-4.67c-1.94-2.47-4.59-4-5.39-5.44a1,1,0,0,1-.18-.58c0-1.26,2.6-1.89,5.61-1.89,3.42,0,8.22.81,9.17,2.47a3.42,3.42,0,0,1,.36,1.62c0,.49-.05,1-.05,1.53a6.84,6.84,0,0,0,.32,2.2c.4,1.3.76,2.16,1.07,2.16s.54-.63.72-2.16c.32-2.56.14-3.91,1.08-5.35C188.09,69.42,191.37,68.61,194.11,68.61ZM178.79,72c0,.41.58.72,1.3.72s1.31-.31,1.31-.76-.54-.72-1.26-.72S178.79,71.53,178.79,72Zm15.32-.4c.72,0,1.3-.32,1.3-.72s-.58-.77-1.3-.77-1.3.32-1.3.72S193.39,71.58,194.11,71.58Z"/></g></g></svg>